<svg xmlns="http://www.w3.org/2000/svg" xmlns:xlink="http://www.w3.org/1999/xlink" xmlns:lucid="lucid" width="1241.08" height="622.6"><g transform="translate(-440 -120)" lucid:page-tab-id="3d1rrcLtfdPh"><path d="M789.44 145c0-2.76 2.24-5 5-5H1473c2.76 0 5 2.24 5 5v530c0 2.76-2.24 5-5 5H794.44c-2.76 0-5-2.24-5-5z" stroke="#000" stroke-width="2" fill="#c1e4f7"/><use xlink:href="#a" transform="matrix(1,0,0,1,794.4428549430446,145) translate(121.98148148148147 24.888888888888893)"/><use xlink:href="#b" transform="matrix(1,0,0,1,794.4428549430446,145) translate(192.84567901234567 24.888888888888893)"/><use xlink:href="#c" transform="matrix(1,0,0,1,794.4428549430446,145) translate(211.7716049382716 24.888888888888893)"/><use xlink:href="#d" transform="matrix(1,0,0,1,794.4428549430446,145) translate(379.3395061728395 24.888888888888893)"/><path d="M800.5 205c0-2.76 2.23-5 5-5h189c2.77 0 5 2.24 5 5v220c0 2.76-2.23 5-5 5h-189c-2.77 0-5-2.24-5-5z" stroke="#000" stroke-width="2" fill="#ffdf71"/><use xlink:href="#e" transform="matrix(1,0,0,1,805.4942010983415,205) translate(3.1750000000000114 212.8)"/><path d="M1260 455c0-2.76 2.24-5 5-5h189c2.77 0 5 2.24 5 5v200c0 2.76-2.23 5-5 5h-189c-2.76 0-5-2.24-5-5z" stroke="#000" stroke-width="2" fill="#ffdf71"/><use xlink:href="#e" transform="matrix(1,0,0,1,1265,455) translate(3.1750000000000114 192.8)"/><path d="M1040 455c0-2.76 2.24-5 5-5h189c2.77 0 5 2.24 5 5v180c0 2.76-2.23 5-5 5h-189c-2.76 0-5-2.24-5-5z" stroke="#000" stroke-width="2" fill="#ffdf71"/><use xlink:href="#e" transform="matrix(1,0,0,1,1045,455) translate(3.1750000000000114 172.8)"/><path d="M800.5 451c0-2.76 2.23-5 5-5h189c2.77 0 5 2.24 5 5v184c0 2.76-2.23 5-5 5h-189c-2.77 0-5-2.24-5-5z" stroke="#000" stroke-width="2" fill="#ffdf71"/><use xlink:href="#e" transform="matrix(1,0,0,1,805.4942010983415,451) translate(3.1750000000000114 176.8)"/><path d="M1341.64 511.24c0-1.92 1.56-3.48 3.48-3.48s3.48 1.56 3.48 3.48v4.8h3.12v-11.28h-13.2v11.28h3.12v-4.8z" stroke="#000" stroke-opacity="0" stroke-width=".41" fill-opacity="0"/><path d="M1407.88 516.4c-.24-2.64-.6-4.92-1.2-7.56l-48.72 1.68 44.04-14.16c0-.12-.12-.12-.12-.24-1.56-2.88-3.6-5.64-5.76-8.16l-38.88 20.16 28.2-29.4.36-.36c-7.44-4.68-16.32-7.32-25.68-7.32-26.88 0-48.72 21.84-48.72 48.72 0 16.92 8.64 31.8 21.72 40.56l.72-8.52 23.64 10.32.48 6.24c.72 0 1.44.12 2.16.12 23.16 0 42.6-16.44 47.52-38.16l-.72-.24-49.68-17.28 50.64 3.6 2.4.24 8.28.6-8.28-.6-2.4-.24zm-74.4 5.16v-5.52h1.92v-11.28h-1.92v-3.24l10.68-10.44v-.72c0-.48.36-.96.96-.96s.96.48.96.96v.72l10.68 10.44v3.24h-1.92v11.28h1.92v5.52h-2.64l1.32 16.56-19.56-8.64.72-7.92h-3.12zm22.8 26.52l.36 4.08-21.96-9.72.36-3.72 21.24 9.36zm-21-12.12l.36-3.72 20.04 8.88.36 4.08-20.76-9.24zm-1.2 13.08l.36-3.84 22.44 9.96.36 3.96-23.16-10.08z" stroke="#000" stroke-opacity="0" stroke-width=".41" fill-opacity="0"/><path d="M1335.88 529.48l19.56 8.64-1.32-16.56h2.64v-5.52h-1.92v-11.28h1.92v-3.24l-10.68-10.44v-.72c0-.48-.36-.96-.96-.96s-.96.48-.96.96v.72l-10.68 10.44v3.24h1.92v11.28h-1.92v5.52h3.12l-.72 7.92zm2.64-24.72h13.2v11.28h-3.12v-4.8c0-1.92-1.56-3.48-3.48-3.48s-3.48 1.56-3.48 3.48v4.8h-3.12v-11.28zm-3.84 37.68l21.96 9.72-.36-4.08-21.24-9.36zm-.24 2.76l-.36 3.84 23.16 10.08-.36-3.96zm1.2-12.96l-.36 3.72 20.76 9.24-.36-4.08z" stroke="#000" stroke-opacity="0" stroke-width=".41"/><path d="M1417 533.56c.12-.12.12-.12.12-.24 1.32-5.52 1.68-10.44 1.44-16.08l-8.28-.6-2.4-.24-50.64-3.6 49.68 17.28.72.24c-4.92 21.72-24.36 38.16-47.52 38.16-.72 0-1.44-.12-2.16-.12l-.48-6.24-23.64-10.32-.72 8.52c-13.08-8.76-21.72-23.64-21.72-40.56 0-26.88 21.84-48.72 48.72-48.72 9.36 0 18.24 2.64 25.68 7.32l-.36.36-28.2 29.4 38.88-20.16c2.16 2.52 4.2 5.28 5.76 8.16 0 .12.12.12.12.24l-44.04 14.16 48.72-1.68c.6 2.64.96 4.92 1.2 7.56l2.4.24 8.28.6c-.12-3.12-.48-5.76-1.08-8.76-1.08-5.64-2.76-10.32-5.4-15.36-1.92-3.72-3.96-6.72-6.6-10.08-3.72-4.56-7.44-8.04-12.36-11.4-.24-.12-.36-.24-.48-.36-9.36-6.24-20.64-9.96-32.64-9.96-32.28 0-58.68 26.4-58.68 58.68s26.4 58.68 58.68 58.68c27.72 0 50.88-19.32 57-45.12z" stroke="#000" stroke-opacity="0" stroke-width=".41"/><path d="M1360 460c-33.12 0-60 26.88-60 60 0 33.12 26.88 60 60 60 33.12 0 60-26.88 60-60 0-33.12-26.88-60-60-60zm-58.68 60c0-32.28 26.4-58.68 58.68-58.68 12 0 23.28 3.72 32.64 9.96.12.12.24.24.48.36 4.92 3.36 8.64 6.84 12.36 11.4 2.64 3.36 4.68 6.36 6.6 10.08 2.64 5.04 4.32 9.72 5.4 15.36.6 3 .96 5.64 1.08 8.76.24 5.64-.12 10.56-1.44 16.08 0 .12 0 .12-.12.24-6.12 25.8-29.28 45.12-57 45.12-32.28 0-58.68-26.4-58.68-58.68z" stroke="#000" stroke-opacity="0" stroke-width=".41"/><path d="M1493.48 145c0-2.76 2.24-5 5-5h146.04c2.76 0 5 2.24 5 5v30.14c0 2.76-2.24 5-5 5h-146.04c-2.76 0-5-2.24-5-5z" fill="none"/><use xlink:href="#f" transform="matrix(1,0,0,1,1493.476804393366,140) translate(9.074999999999989 24.1)"/><path d="M855.27 305c0-2.76 2.24-5 5-5h79.46c2.76 0 5 2.24 5 5v83.25c0 2.76-2.24 5-5 5h-79.46c-2.76 0-5-2.24-5-5z" fill="none"/><use xlink:href="#g" transform="matrix(1,0,0,1,855.2739601457683,300) translate(0 10.666666666666668)"/><use xlink:href="#h" transform="matrix(1,0,0,1,855.2739601457683,300) translate(0 26.666666666666668)"/><use xlink:href="#i" transform="matrix(1,0,0,1,855.2739601457683,300) translate(0 42.66666666666667)"/><use xlink:href="#j" transform="matrix(1,0,0,1,855.2739601457683,300) translate(0 58.66666666666667)"/><use xlink:href="#k" transform="matrix(1,0,0,1,855.2739601457683,300) translate(0 74.66666666666667)"/><use xlink:href="#l" transform="matrix(1,0,0,1,855.2739601457683,300) translate(0 90.66666666666667)"/><path d="M1280 405c0-2.76 2.24-5 5-5h146.05c2.76 0 5 2.24 5 5v21.18c0 2.76-2.24 5-5 5H1285c-2.76 0-5-2.24-5-5z" fill="none"/><use xlink:href="#m" transform="matrix(1,0,0,1,1280,400) translate(13.074999999999989 14.4)"/><use xlink:href="#n" transform="matrix(1,0,0,1,1280,400) translate(6.25 36)"/><path d="M1625 206.62L1611.6 192l-18.84 48.1 18.85 48.12 13.4-14.62v-66.98z" fill="#2e73b8"/><path d="M1588.22 300.14l23.4-11.88v-96.24l-23.4-11.88-27.8 60 27.8 60z" fill="#5294cf"/><path d="M1554.78 300.14h33.43v-120h-33.42l-20.07 60 20.08 60z" fill="#2e73b8"/><path d="M1531.38 288.26l23.4 11.88v-120l-23.4 11.88-10.36 48.12 10.36 48.12z" fill="#205b99"/><path d="M1518 273.6l13.38 14.6V192L1518 206.6v66.97z" fill="#19486f"/><use xlink:href="#o" transform="matrix(1,0,0,1,1518,300.1388413954785) translate(20.525 14.4)"/><use xlink:href="#p" transform="matrix(1,0,0,1,1518,300.1388413954785) translate(34.55 36)"/><path d="M1060 405c0-2.76 2.24-5 5-5h146.05c2.76 0 5 2.24 5 5v21.18c0 2.76-2.24 5-5 5H1065c-2.76 0-5-2.24-5-5z" fill="none"/><use xlink:href="#q" transform="matrix(1,0,0,1,1060,400) translate(8.074999999999989 14.4)"/><use xlink:href="#r" transform="matrix(1,0,0,1,1060,400) translate(0.5749999999999886 36)"/><path d="M1121.64 511.24c0-1.92 1.56-3.48 3.48-3.48s3.48 1.56 3.48 3.48v4.8h3.12v-11.28h-13.2v11.28h3.12v-4.8z" stroke="#000" stroke-opacity="0" stroke-width=".41" fill-opacity="0"/><path d="M1187.88 516.4c-.24-2.64-.6-4.92-1.2-7.56l-48.72 1.68 44.04-14.16c0-.12-.12-.12-.12-.24-1.56-2.88-3.6-5.64-5.76-8.16l-38.88 20.16 28.2-29.4.36-.36c-7.44-4.68-16.32-7.32-25.68-7.32-26.88 0-48.72 21.84-48.72 48.72 0 16.92 8.64 31.8 21.72 40.56l.72-8.52 23.64 10.32.48 6.24c.72 0 1.44.12 2.16.12 23.16 0 42.6-16.44 47.52-38.16l-.72-.24-49.68-17.28 50.64 3.6 2.4.24 8.28.6-8.28-.6-2.4-.24zm-74.4 5.16v-5.52h1.92v-11.28h-1.92v-3.24l10.68-10.44v-.72c0-.48.36-.96.96-.96s.96.48.96.96v.72l10.68 10.44v3.24h-1.92v11.28h1.92v5.52h-2.64l1.32 16.56-19.56-8.64.72-7.92h-3.12zm22.8 26.52l.36 4.08-21.96-9.72.36-3.72 21.24 9.36zm-21-12.12l.36-3.72 20.04 8.88.36 4.08-20.76-9.24zm-1.2 13.08l.36-3.84 22.44 9.96.36 3.96-23.16-10.08z" stroke="#000" stroke-opacity="0" stroke-width=".41" fill-opacity="0"/><path d="M1115.88 529.48l19.56 8.64-1.32-16.56h2.64v-5.52h-1.92v-11.28h1.92v-3.24l-10.68-10.44v-.72c0-.48-.36-.96-.96-.96s-.96.48-.96.96v.72l-10.68 10.44v3.24h1.92v11.28h-1.92v5.52h3.12l-.72 7.92zm2.64-24.72h13.2v11.28h-3.12v-4.8c0-1.92-1.56-3.48-3.48-3.48s-3.48 1.56-3.48 3.48v4.8h-3.12v-11.28zm-3.84 37.68l21.96 9.72-.36-4.08-21.24-9.36zm-.24 2.76l-.36 3.84 23.16 10.08-.36-3.96zm1.2-12.96l-.36 3.72 20.76 9.24-.36-4.08z" stroke="#000" stroke-opacity="0" stroke-width=".41"/><path d="M1197 533.56c.12-.12.12-.12.12-.24 1.32-5.52 1.68-10.44 1.44-16.08l-8.28-.6-2.4-.24-50.64-3.6 49.68 17.28.72.24c-4.92 21.72-24.36 38.16-47.52 38.16-.72 0-1.44-.12-2.16-.12l-.48-6.24-23.64-10.32-.72 8.52c-13.08-8.76-21.72-23.64-21.72-40.56 0-26.88 21.84-48.72 48.72-48.72 9.36 0 18.24 2.64 25.68 7.32l-.36.36-28.2 29.4 38.88-20.16c2.16 2.52 4.2 5.28 5.76 8.16 0 .12.12.12.12.24l-44.04 14.16 48.72-1.68c.6 2.64.96 4.92 1.2 7.56l2.4.24 8.28.6c-.12-3.12-.48-5.76-1.08-8.76-1.08-5.64-2.76-10.32-5.4-15.36-1.92-3.72-3.96-6.72-6.6-10.08-3.72-4.56-7.44-8.04-12.36-11.4-.24-.12-.36-.24-.48-.36-9.36-6.24-20.64-9.96-32.64-9.96-32.28 0-58.68 26.4-58.68 58.68s26.4 58.68 58.68 58.68c27.72 0 50.88-19.32 57-45.12z" stroke="#000" stroke-opacity="0" stroke-width=".41"/><path d="M1140 460c-33.12 0-60 26.88-60 60 0 33.12 26.88 60 60 60 33.12 0 60-26.88 60-60 0-33.12-26.88-60-60-60zm-58.68 60c0-32.28 26.4-58.68 58.68-58.68 12 0 23.28 3.72 32.64 9.96.12.12.24.24.48.36 4.92 3.36 8.64 6.84 12.36 11.4 2.64 3.36 4.68 6.36 6.6 10.08 2.64 5.04 4.32 9.72 5.4 15.36.6 3 .96 5.64 1.08 8.76.24 5.64-.12 10.56-1.44 16.08 0 .12 0 .12-.12.24-6.12 25.8-29.28 45.12-57 45.12-32.28 0-58.68-26.4-58.68-58.68z" stroke="#000" stroke-opacity="0" stroke-width=".41"/><path d="M720 248.97c0 26.5-22.4 48.02-50 48.02s-50-21.53-50-48.03 22.4-48.03 50-48.03 50 21.52 50 48.03z" fill="#9d5025"/><path d="M720 245.03c0 26.5-22.4 48.02-50 48.02s-50-21.52-50-48.03c0-26.5 22.4-48.02 50-48.02s50 21.52 50 48.03z" fill="#f58536"/><path d="M627.96 231h18.15v28.04h-18.14V231zM685.98 211.86h16.2v15.56h-16.2v-15.56zM685.98 237.24h16.2v15.56h-16.2v-15.56zM685.98 262.64h16.2v15.56h-16.2v-15.56z" fill="#fff"/><path d="M681.5 247.06l2.7-1.24 1.78-.84-1.77-.85-2.4-1.14-7.22-3.44V243h-21.7l24.67-15.2 1.95 2.93 4.08-6.66 1.2-1.93 1.2-1.94-2.3.25-2.62.3-7.72.9 1.86 2.72L644.95 243l-3.33 2.03 4 2.43 29.58 18.22-1.86 2.73 7.72.9 2.6.3 2.32.25-1.2-1.94-1.2-1.92-4.08-6.66-1.95 2.93-24.66-15.2h21.68v3.34l6.92-3.34z" fill="#fff"/><use xlink:href="#s" transform="matrix(1,0,0,1,620,297) translate(33 14.4)"/><path d="M1612.07 383.24v4.52h-81.96v-4.52l41-11.08 40.97 11.08zM1529 397.77h85v93.8h-85v-93.8z" fill="#8c3123"/><path d="M1529 393.64h85v93.4h-85v-93.4zM1600.5 371.57h-57.94l-12.45 11.67h81.97l-11.56-11.67z" fill="#e05243"/><use xlink:href="#o" transform="matrix(1,0,0,1,1529,491.5722508330809) translate(9.524999999999999 14.4)"/><use xlink:href="#t" transform="matrix(1,0,0,1,1529,491.5722508330809) translate(24.5 36)"/><path d="M1440.62 520H1464c2.76 0 5-2.24 5-5V255.14c0-2.76 2.24-5 5-5h23.38" stroke="#de5f85" stroke-width="3" fill="none"/><path d="M1424.85 520l14.27-4.64v9.28zM1513.15 250.14l-14.27 4.63v-9.27z" stroke="#de5f85" stroke-width="3" fill="#de5f85"/><path d="M840 225c0-2.76 2.24-5 5-5h110c2.76 0 5 2.24 5 5v64c0 2.76-2.24 5-5 5H845c-2.76 0-5-2.24-5-5z" stroke="#000" stroke-width="2" fill="#7ab648"/><use xlink:href="#u" transform="matrix(1,0,0,1,845,225) translate(1.5999999999999943 35.6)"/><path d="M820 465c0-2.76 2.24-5 5-5h150c2.76 0 5 2.24 5 5v76c0 2.76-2.24 5-5 5H825c-2.76 0-5-2.24-5-5z" stroke="#000" stroke-width="2" fill="#3aa6dd"/><use xlink:href="#v" transform="matrix(1,0,0,1,825,465) translate(21.6 41.6)"/><path d="M689.73 542.56L668.63 553V433l21.1 10.56v99z" fill="#f58536"/><path d="M647.52 542.56l21.1 10.44V433l-21.1 10.56v99z" fill="#9d5025"/><path d="M660.66 476.66l-35.58-4.5v-17.5l35.58 8.34v13.66z" fill="#f58536"/><path d="M618.72 457.83l6.36-3.16v17.5l-6.36 1.74v-16.07z" fill="#9d5025"/><path d="M660.67 476.65l-7.38 1.1-34.58-3.84 6.38-1.74 35.57 4.5z" fill="#6b3a19"/><path d="M713.44 508.08l5.27-1.08v-14h-5.26v15.08z" fill="#f58536"/><path d="M676.5 504.92l36.93 3.42V493H676.5v11.92z" fill="#9d5025"/><use xlink:href="#o" transform="matrix(1,0,0,1,618.7214274715222,553) translate(17.025 14.4)"/><use xlink:href="#w" transform="matrix(1,0,0,1,618.7214274715222,553) translate(13.524999999999999 36)"/><use xlink:href="#x" transform="matrix(1,0,0,1,618.7214274715222,553) translate(66.475 36)"/><path d="M818 503h-80.8" stroke="#ef8d22" stroke-width="2" fill="none"/><path d="M819 504h-1.03v-2H819z" fill="#ef8d22"/><path d="M721.95 503l14.26-4.64v9.28z" stroke="#ef8d22" stroke-width="2" fill="#ef8d22"/><path d="M837.5 257h-97.62" stroke="#834187" stroke-width="3" fill="none"/><path d="M839 258.5h-1.54v-3H839z" fill="#834187"/><path d="M724.1 257l14.28-4.64v9.28z" stroke="#834187" stroke-width="3" fill="#834187"/><path d="M483.92 602.45c-1.95.12-3.47 1.64-3.6 3.58-.13 2.12 1.48 3.94 3.6 4.07h.5c2.1-.13 3.72-1.95 3.58-4.07-.14-2.1-1.96-3.72-4.08-3.58z" fill-opacity="0"/><path d="M527.34 654.12l-10.1-5.03-5.2 9.97-8.04-7.9-8.05 7.9-5.2-9.98-10.08 5.02-1.87-11.1-3.96.6V680L504 660l29.17 20V643.6l-3.96-.6-1.86 11.1z" fill="#19486f"/><path d="M474.84 626.95v48.38L504 655.35l29.17 19.98v-48.38h-58.33z" fill="#2e73b8"/><path d="M541.14 608.5l6.86-6.94v-4.65l-8.7.2 4.4-8.78v-4.64l-9.7 3.07 1.5-9.65v-4.64l-9.68 6.13-1.58-9.65-8.8 4.38-4.5-8.67-6.94 6.83-6.95-6.84-4.5 8.67-8.8-4.38-1.57 9.64-9.68-6.14v4.64l1.5 9.65-9.7-3.07v4.64l4.4 8.77-8.7-.2v4.66l6.86 6.93-6.86 2.27v4.64l8.7 4.48-4.4 4.12v4.65l9.7 1.58-1.5 5v4.64l2.37-.35 7.3-1.14 1.6 9.64 8.8-4.38 4.48 8.68 6.95-6.84 6.95 6.84 4.5-8.68 8.8 4.38 1.57-9.64 7.4 1.14 2.28.35v-4.65l-1.5-5 9.7-1.57V624l-4.4-4.12 8.7-4.47v-4.63l-6.86-2.28z" fill="#19486f"/><path d="M541.14 603.83l6.86-6.93-8.7-4.47 4.4-8.76-9.7-1.58 1.5-9.65-9.68 1.5-1.58-9.65-8.8 4.38-4.5-8.68-6.94 6.84-6.95-6.84-4.5 8.68-8.8-4.38-1.57 9.64-9.68-1.5 1.5 9.65-9.7 1.57 4.4 8.76-8.7 4.47 6.86 6.93-6.86 6.93 8.7 4.47-4.4 8.76 9.7 1.57-1.5 9.64 2.37-.34 7.3-1.14 1.6 9.64 8.8-4.38 4.48 8.68 6.95-6.84 6.95 6.84 4.5-8.68 8.8 4.38 1.57-9.64 7.4 1.14 2.28.35-1.5-9.63 9.7-1.58-4.4-8.77 8.7-4.47-6.86-6.93z" fill="#2e73b8"/><path d="M538 603.84c0 18.7-15.23 33.88-34 33.88-18.8 0-34.03-15.18-34.03-33.88 0-18.7 15.24-33.9 34.02-33.9 18.77 0 34 15.2 34 33.9z" fill="#2e73b8"/><path d="M504 640.05c-20.08 0-36.37-16.22-36.37-36.2 0-20 16.3-36.23 36.36-36.23s36.35 16.22 36.35 36.22-16.3 36.2-36.36 36.2zm0-67.8c-17.54 0-31.72 14.13-31.72 31.6 0 17.44 14.18 31.57 31.7 31.57 17.54 0 31.72-14.13 31.72-31.58-.07-17.46-14.18-31.5-31.7-31.58z" fill="#fff"/><path d="M527.1 601l-4.88 2.88-1.83-.4-2-2.12-5.3.5-2.22-3.75-6.2.1h-1.42c-.86-1.4-1.83-2.46-3.13-3.45-5.08-4.03-12.1-4-17.12.08-.48.38-.85.73-1.3 1.16-5.06 5.3-4.85 13.74.5 18.82 4.97 4.76 12.64 5.08 18 .73.74-.54 1.28-1.08 1.88-1.78.6-.64.97-1.26 1.4-2.04.32-.54.54-1 .76-1.56h25.17l2.65-4.6zm-41.44 7.48c-1.95 0-3.5-1.6-3.5-3.52 0-1.96 1.55-3.52 3.5-3.52 1.94 0 3.56 1.56 3.56 3.52 0 1.93-1.62 3.52-3.56 3.52z" fill="#fff"/><use xlink:href="#y" transform="matrix(1,0,0,1,460,680) translate(25.3 14.4)"/><use xlink:href="#z" transform="matrix(1,0,0,1,460,680) translate(13.524999999999999 36)"/><path d="M504 565.34V498c0-2.76 2.24-5 5-5h117.9" stroke="#ef8d22" stroke-width="3" fill="none"/><path d="M505.5 565.36l-1.5 1.48-1.5-1.48v-.06h3z" fill="#ef8d22"/><path d="M642.67 493l-14.27 4.64v-9.28z" stroke="#ef8d22" stroke-width="3" fill="#ef8d22"/><path d="M568.62 610.76h297.72c2.76 0 5-2.24 5-5v-38.14" stroke="#ef8d22" stroke-width="3" fill="none"/><path d="M552.85 610.76l14.27-4.64v9.27zM871.34 551.85l4.63 14.27h-9.27z" stroke="#ef8d22" stroke-width="3" fill="#ef8d22"/><path d="M490.44 258.78H469.7c-.95 0-1.7-.76-1.7-1.7v-2.54c0-9.48 6.23-17.44 15.5-19.67.4-.1.8-.04 1.2.17 2.73 1.46 5.68 1.46 8.4 0 .4-.2.8-.26 1.22-.17 2.43.6 4.43 1.47 6.5 2.85l-1.9 2.83c-1.55-1-3-1.68-4.8-2.15-3.45 1.58-7 1.58-10.43 0-7.4 2.06-12.3 8.5-12.3 16.14v.84h19.04z" stroke="#fff" stroke-opacity="0" fill="#232f3e"/><path d="M488.88 239.46c-6.17 0-11.17-5-11.17-11.14 0-6.16 5-11.15 11.18-11.15 6.16-.07 11.2 4.88 11.26 11 .04 4.27-2.1 7.9-5.86 9.9-1.72.97-3.4 1.4-5.4 1.4zm0-18.9c-4.3 0-7.83 3.45-7.85 7.76 0 2.92 1.48 5.4 4.06 6.8 2.43 1.3 5.12 1.3 7.57 0 2.6-1.4 4.1-3.95 4.06-6.9-.05-4.27-3.57-7.68-7.85-7.64zM546.32 258.78h-20.75v-3.4h19.04v-.83c0-7.67-4.9-14.1-12.25-16.17-3.45 1.6-7 1.6-10.46 0-1.82.5-3.3 1.2-4.84 2.28l-1.94-2.8c2.07-1.44 4.08-2.35 6.5-2.97.44-.1.86-.06 1.26.16 2.7 1.46 5.7 1.46 8.42 0 .4-.22.8-.27 1.2-.17 9.25 2.22 15.5 10.16 15.5 19.65v2.53c0 .94-.76 1.68-1.68 1.7z" stroke="#fff" stroke-opacity="0" fill="#232f3e"/><path d="M527.08 239.46c-6.2 0-11.23-5.05-11.23-11.25s5.06-11.2 11.28-11.2c6.2 0 11.23 5.05 11.23 11.25 0 4.23-2.14 7.82-5.85 9.84-1.75.94-3.44 1.36-5.42 1.36zm0-18.9c-4.3 0-7.8 3.45-7.83 7.76-.02 2.92 1.46 5.42 4.05 6.8 2.43 1.3 5.13 1.3 7.6 0 2.62-1.4 4.13-3.97 4.08-6.96-.1-4.26-3.62-7.68-7.9-7.6zM535.2 297h-54.46c-.92 0-1.67-.75-1.67-1.7v-3.6c-.06-13.1 8.6-24.1 21.32-27.18.46-.13.86-.06 1.27.13 4.04 2.18 8.5 2.18 12.6 0 .34-.2.75-.26 1.2-.13 12.78 3.06 21.45 14.06 21.4 27.18v3.6c0 .95-.76 1.7-1.68 1.7zm-52.72-3.38h50.97v-1.92c0-11.27-7.28-20.74-18.2-23.66-4.8 2.3-9.83 2.3-14.62 0-10.93 2.92-18.15 12.4-18.15 23.66z" stroke="#fff" stroke-opacity="0" fill="#232f3e"/><path d="M508.02 269.64c-2.7 0-5-.58-7.4-1.86-7.4-4.07-10.13-13.34-6.1-20.77 4.1-7.4 13.38-10.12 20.83-6.08 7.42 4.07 10.15 13.34 6.1 20.77-1.47 2.68-3.4 4.6-6.1 6.08-2.36 1.28-4.66 1.86-7.33 1.86zm0-26.76c-4.44-.06-8.28 2.17-10.42 6.1-3.07 5.64-.98 12.74 4.7 15.83 3.67 1.97 7.7 1.97 11.4 0 3.95-2.13 6.22-5.95 6.16-10.42-.1-6.42-5.4-11.6-11.84-11.5z" stroke="#fff" stroke-opacity="0" fill="#232f3e"/><path d="M546.78 258.78h-39.72c-.68 0-1.23-.54-1.23-1.23v-2.64c-.04-9.53 6.3-17.56 15.56-19.8.33-.1.63-.06.92.08 2.95 1.6 6.2 1.6 9.2 0 .25-.14.54-.2.88-.1 9.32 2.24 15.64 10.27 15.6 19.83v2.65c0 .7-.55 1.23-1.22 1.23zm-38.46-2.47h37.2v-1.4c0-8.2-5.32-15.1-13.3-17.25-3.5 1.7-7.16 1.7-10.66 0-7.97 2.14-13.24 9.05-13.24 17.26z" stroke="#fff" stroke-opacity="0" stroke-width=".73" fill="#fff" fill-opacity="0"/><path d="M508.94 258.78h-39.72c-.67 0-1.22-.54-1.22-1.23v-2.64c-.04-9.53 6.28-17.56 15.56-19.8.34-.1.63-.06.93.08 2.94 1.6 6.2 1.6 9.18 0 .25-.14.55-.2.88-.1 9.32 2.24 15.65 10.27 15.6 19.83v2.65c0 .7-.54 1.23-1.22 1.23zm-38.45-2.47h37.18v-1.4c0-8.2-5.3-15.1-13.28-17.25-3.5 1.7-7.17 1.7-10.67 0-7.97 2.14-13.24 9.05-13.24 17.26z" stroke="#fff" stroke-opacity="0" stroke-width=".73" fill="#fff" fill-opacity="0"/><path d="M549.5 257h50.58" stroke="#834187" stroke-width="3" fill="none"/><path d="M549.54 258.5h-2.08l.18-.07.36-.88v-2.05h1.54z" fill="#834187"/><path d="M615.85 257l-14.27 4.64v-9.28z" stroke="#834187" stroke-width="3" fill="#834187"/><path d="M1140 581.5V595c0 2.76-2.24 5-5 5h-109.5c-2.76 0-5-2.24-5-5v-87c0-2.76-2.24-5-5-5h-13.88" stroke="#3aa6dd" stroke-width="3" fill="none"/><path d="M1141.5 581.54h-3v-1.6l1.5.06 1.5-.06z" fill="#3aa6dd"/><path d="M985.85 503l14.27-4.64v9.28z" stroke="#3aa6dd" stroke-width="3" fill="#3aa6dd"/><path d="M962.5 273.14h168.06c2.76 0 5 2.24 5 5v101.24" stroke="#7ab648" stroke-width="3" fill="none"/><path d="M962.54 274.64H961v-3h1.54z" fill="#7ab648"/><path d="M1135.56 395.15l-4.64-14.27h9.27z" stroke="#7ab648" stroke-width="3" fill="#7ab648"/><path d="M962.5 237.82h389.3c2.76 0 5 2.24 5 5v136.56" stroke="#7ab648" stroke-width="3" fill="none"/><path d="M962.54 239.32H961v-3h1.54z" fill="#7ab648"/><path d="M1356.8 395.15l-4.63-14.27h9.27z" stroke="#7ab648" stroke-width="3" fill="#7ab648"/><path d="M1298.5 520H1255c-2.76 0-5 2.24-5 5v130c0 2.76-2.24 5-5 5H941.63c-2.76 0-5-2.24-5-5v-87.38" stroke="#3aa6dd" stroke-width="3" fill="none"/><path d="M1300 520l.06 1.5h-1.6v-3h1.6z" fill="#3aa6dd"/><path d="M936.63 551.85l4.64 14.27H932z" stroke="#3aa6dd" stroke-width="3" fill="#3aa6dd"/><path d="M508 298.5V345c0 2.76 2.24 5 5 5h150.72c2.76 0 5 2.24 5 5v57.43" stroke="#834187" stroke-width="3" fill="none"/><path d="M509.5 298.54h-3V297h3z" fill="#834187"/><path d="M668.72 428.2l-4.63-14.27h9.26z" stroke="#834187" stroke-width="3" fill="#834187"/><path d="M1360 600.62V615c0 2.76 2.24 5 5 5h119c2.76 0 5-2.24 5-5V446.57c0-2.76 2.24-5 5-5h14.38" stroke="#c92d39" stroke-width="3" fill="none"/><path d="M1360 584.85l4.64 14.27h-9.28zM1524.15 441.57l-14.27 4.64v-9.26z" stroke="#c92d39" stroke-width="3" fill="#c92d39"/><path d="M1192 259c0-2.76 2.24-5 5-5h78c2.76 0 5 2.24 5 5v30c0 2.76-2.24 5-5 5h-78c-2.76 0-5-2.24-5-5z" stroke="#000" stroke-width="2" fill="#ef8d22"/><use xlink:href="#A" transform="matrix(1,0,0,1,1197,259) translate(14.5 18.6)"/><path d="M1236.23 295.97L1268.45 431" stroke="#ffc374" stroke-width="2" fill="none"/><path d="M1237.2 295.77l-1.93.46-.3-1.23h2.06z" fill="#ffc374"/><path d="M1272 445.85l-7.82-12.8 9.02-2.15z" stroke="#ffc374" stroke-width="2" fill="#ffc374"/><path d="M1235.95 296l-6.23 134.52" stroke="#ffc374" stroke-width="2" fill="none"/><path d="M1236.95 296.07l-2-.1.05-.97h2z" fill="#ffc374"/><path d="M1229 445.77l-3.96-14.47 9.26.43z" stroke="#ffc374" stroke-width="2" fill="#ffc374"/><path d="M1235.05 295.32l-94.76 32.5c-.9-2.62-3.75-4.02-6.36-3.12-2.6.9-4 3.74-3.1 6.35L1018 369.72" stroke="#ffc374" stroke-width="2" fill="none"/><path d="M1235.35 296.28l-.43-1.28h4.16z" fill="#ffc374"/><path d="M1003.57 374.67l12-9 3 8.76z" stroke="#ffc374" stroke-width="2" fill="#ffc374"/><path d="M1235.16 295.54l-95.4 61.6c-1.5-2.33-4.6-3-6.9-1.5-2.33 1.5-3 4.6-1.5 6.9l-116.5 75.22" stroke="#fcc438" stroke-width="2" fill="none"/><path d="M1235.68 296.4l-.9-1.4h3.06z" fill="#fcc438"/><path d="M1002.02 446.04l9.47-11.63 5.02 7.8z" stroke="#fcc438" stroke-width="2" fill="#fcc438"/><path d="M1636.32 584.8c-.96-.98-2.16-1.66-3.12-1.66H1523.16c-2.88 0-5.16 2.8-5.16 6V674c0 3.48 2.28 6 5.16 6h109.68c2.88 0 5.04-2.8 5.04-6v-82.82c.12 2.23.48-4.45-1.56-6.4zm-76.8 79.6c-.36.68-.6 1.65-.6 2.33h-9.6v-67.9c0-1.84 1.68-3.48 3.6-3.48h27.84c1.92 0 3.48 1.64 3.48 3.5V627c-1.32 0-2.16.97-2.76 1.94L1569 649.4h-14.4v3.58h12.12l-1.92 3.48h-10.2v3.6h8.04l-3.12 4.35zm44.88 1.94h-39.72c-1.56 0-2.16-1.26-1.56-2.6l19.8-32.94c.96-1.65 2.28-1.65 3.24 0l19.92 32.93c.96 1.64.24 2.6-1.68 2.6z" stroke="#000" stroke-opacity="0" fill="#00188f"/><path d="M1554.48 605.9h24.36v3.5h-24.24v-3.5h-.12zM1585.8 652.88v-3.58h3.6v-5.43h-8.64v5.43h3.48v3.58h-7.08V658h-3.48v5.05h8.64V658h-3.48v-3.57h12.48V658h-3.48v5.05h8.64V658h-3.6v-5.12h-7.08z" stroke="#000" stroke-opacity="0" fill="#00188f"/><path d="M1499.98 548c0-2.76 2.24-5 5-5h146.04c2.76 0 5 2.24 5 5v30.14c0 2.77-2.24 5-5 5h-146.04c-2.76 0-5-2.23-5-5z" fill="none"/><g><use xlink:href="#B" transform="matrix(1,0,0,1,1499.976804393366,543.0056602706833) translate(-2.9000000000000057 24.1)"/></g><path d="M1578 681v34c0 2.76-2.24 5-5 5h-428c-2.76 0-5-2.24-5-5v-50c-2.76 0-5-2.24-5-5s2.24-5 5-5v-56.5" stroke="#241096" stroke-width="2" fill="none"/><path d="M1579 680v1.03h-2V680z" fill="#241096"/><path d="M1140 583.24l4.64 14.26h-9.28z" stroke="#241096" stroke-width="2" fill="#241096"/><path d="M1578 681v14c0 2.76-2.24 5-5 5h-208.5c-2.76 0-5-2.24-5-5v-15.5" stroke="#241096" stroke-width="2" fill="none"/><path d="M1579 680v1.03h-2V680z" fill="#241096"/><path d="M1359.5 664.24l4.64 14.26h-9.27z" stroke="#241096" stroke-width="2" fill="#241096"/><defs><path d="M30 0v-248h187v28H63v79h144v27H63v87h162V0H30" id="C"/><path d="M194 0L95-120 63-95V0H30v-248h33v124l119-124h40L117-140 236 0h-42" id="D"/><path d="M185-189c-5-48-123-54-124 2 14 75 158 14 163 119 3 78-121 87-175 55-17-10-28-26-33-46l33-7c5 56 141 63 141-1 0-78-155-14-162-118-5-82 145-84 179-34 5 7 8 16 11 25" id="E"/><g id="a"><use transform="matrix(0.08641975308641976,0,0,0.08641975308641976,0,0)" xlink:href="#C"/><use transform="matrix(0.08641975308641976,0,0,0.08641975308641976,20.740740740740744,0)" xlink:href="#D"/><use transform="matrix(0.08641975308641976,0,0,0.08641975308641976,41.48148148148149,0)" xlink:href="#E"/></g><path d="M16-82v-28h88v28H16" id="F"/><use transform="matrix(0.08641975308641976,0,0,0.08641975308641976,0,0)" xlink:href="#F" id="b"/><path d="M84 4C-5 8 30-112 23-190h32v120c0 31 7 50 39 49 72-2 45-101 50-169h31l1 190h-30c-1-10 1-25-2-33-11 22-28 36-60 37" id="G"/><path d="M115-194c53 0 69 39 70 98 0 66-23 100-70 100C84 3 66-7 56-30L54 0H23l1-261h32v101c10-23 28-34 59-34zm-8 174c40 0 45-34 45-75 0-40-5-75-45-74-42 0-51 32-51 76 0 43 10 73 51 73" id="H"/><path d="M100-194c63 0 86 42 84 106H49c0 40 14 67 53 68 26 1 43-12 49-29l28 8c-11 28-37 45-77 45C44 4 14-33 15-96c1-61 26-98 85-98zm52 81c6-60-76-77-97-28-3 7-6 17-6 28h103" id="I"/><path d="M114-163C36-179 61-72 57 0H25l-1-190h30c1 12-1 29 2 39 6-27 23-49 58-41v29" id="J"/><path d="M117-194c89-4 53 116 60 194h-32v-121c0-31-8-49-39-48C34-167 62-67 57 0H25l-1-190h30c1 10-1 24 2 32 11-22 29-35 61-36" id="K"/><path d="M59-47c-2 24 18 29 38 22v24C64 9 27 4 27-40v-127H5v-23h24l9-43h21v43h35v23H59v120" id="L"/><path d="M135-143c-3-34-86-38-87 0 15 53 115 12 119 90S17 21 10-45l28-5c4 36 97 45 98 0-10-56-113-15-118-90-4-57 82-63 122-42 12 7 21 19 24 35" id="M"/><g id="c"><use transform="matrix(0.08641975308641976,0,0,0.08641975308641976,0,0)" xlink:href="#D"/><use transform="matrix(0.08641975308641976,0,0,0.08641975308641976,20.740740740740744,0)" xlink:href="#G"/><use transform="matrix(0.08641975308641976,0,0,0.08641975308641976,38.0246913580247,0)" xlink:href="#H"/><use transform="matrix(0.08641975308641976,0,0,0.08641975308641976,55.308641975308646,0)" xlink:href="#I"/><use transform="matrix(0.08641975308641976,0,0,0.08641975308641976,72.5925925925926,0)" xlink:href="#J"/><use transform="matrix(0.08641975308641976,0,0,0.08641975308641976,82.87654320987654,0)" xlink:href="#K"/><use transform="matrix(0.08641975308641976,0,0,0.08641975308641976,100.16049382716048,0)" xlink:href="#I"/><use transform="matrix(0.08641975308641976,0,0,0.08641975308641976,117.44444444444444,0)" xlink:href="#L"/><use transform="matrix(0.08641975308641976,0,0,0.08641975308641976,126.08641975308642,0)" xlink:href="#I"/><use transform="matrix(0.08641975308641976,0,0,0.08641975308641976,143.37037037037038,0)" xlink:href="#M"/></g><path d="M87 75C49 33 22-17 22-94c0-76 28-126 65-167h31c-38 41-64 92-64 168S80 34 118 75H87" id="N"/><path d="M210-169c-67 3-38 105-44 169h-31v-121c0-29-5-50-35-48C34-165 62-65 56 0H25l-1-190h30c1 10-1 24 2 32 10-44 99-50 107 0 11-21 27-35 58-36 85-2 47 119 55 194h-31v-121c0-29-5-49-35-48" id="O"/><path d="M179-190L93 31C79 59 56 82 12 73V49c39 6 53-20 64-50L1-190h34L92-34l54-156h33" id="P"/><path d="M24 0v-261h32V0H24" id="Q"/><path d="M141-36C126-15 110 5 73 4 37 3 15-17 15-53c-1-64 63-63 125-63 3-35-9-54-41-54-24 1-41 7-42 31l-33-3c5-37 33-52 76-52 45 0 72 20 72 64v82c-1 20 7 32 28 27v20c-31 9-61-2-59-35zM48-53c0 20 12 33 32 33 41-3 63-29 60-74-43 2-92-5-92 41" id="R"/><path d="M33 0v-38h34V0H33" id="S"/><path d="M85-194c31 0 48 13 60 33l-1-100h32l1 261h-30c-2-10 0-23-3-31C134-8 116 4 85 4 32 4 16-35 15-94c0-66 23-100 70-100zm9 24c-40 0-46 34-46 75 0 40 6 74 45 74 42 0 51-32 51-76 0-42-9-74-50-73" id="T"/><path d="M108 0H70L1-190h34L89-25l56-165h34" id="U"/><path d="M33-261c38 41 65 92 65 168S71 34 33 75H2C39 34 66-17 66-93S39-220 2-261h31" id="V"/><g id="d"><use transform="matrix(0.08641975308641976,0,0,0.08641975308641976,0,0)" xlink:href="#N"/><use transform="matrix(0.08641975308641976,0,0,0.08641975308641976,10.283950617283951,0)" xlink:href="#O"/><use transform="matrix(0.08641975308641976,0,0,0.08641975308641976,36.12345679012346,0)" xlink:href="#P"/><use transform="matrix(0.08641975308641976,0,0,0.08641975308641976,51.67901234567902,0)" xlink:href="#Q"/><use transform="matrix(0.08641975308641976,0,0,0.08641975308641976,58.50617283950618,0)" xlink:href="#R"/><use transform="matrix(0.08641975308641976,0,0,0.08641975308641976,75.79012345679013,0)" xlink:href="#H"/><use transform="matrix(0.08641975308641976,0,0,0.08641975308641976,93.07407407407409,0)" xlink:href="#M"/><use transform="matrix(0.08641975308641976,0,0,0.08641975308641976,108.62962962962965,0)" xlink:href="#S"/><use transform="matrix(0.08641975308641976,0,0,0.08641975308641976,117.27160493827162,0)" xlink:href="#T"/><use transform="matrix(0.08641975308641976,0,0,0.08641975308641976,134.55555555555557,0)" xlink:href="#I"/><use transform="matrix(0.08641975308641976,0,0,0.08641975308641976,151.83950617283952,0)" xlink:href="#U"/><use transform="matrix(0.08641975308641976,0,0,0.08641975308641976,167.3950617283951,0)" xlink:href="#V"/></g><path d="M24-231v-30h32v30H24zM24 0v-190h32V0H24" id="W"/><path d="M177-190C167-65 218 103 67 71c-23-6-38-20-44-43l32-5c15 47 100 32 89-28v-30C133-14 115 1 83 1 29 1 15-40 15-95c0-56 16-97 71-98 29-1 48 16 59 35 1-10 0-23 2-32h30zM94-22c36 0 50-32 50-73 0-42-14-75-50-75-39 0-46 34-46 75s6 73 46 73" id="X"/><path d="M96-169c-40 0-48 33-48 73s9 75 48 75c24 0 41-14 43-38l32 2c-6 37-31 61-74 61-59 0-76-41-82-99-10-93 101-131 147-64 4 7 5 14 7 22l-32 3c-4-21-16-35-41-35" id="Y"/><path d="M115-194c55 1 70 41 70 98S169 2 115 4C84 4 66-9 55-30l1 105H24l-1-265h31l2 30c10-21 28-34 59-34zm-8 174c40 0 45-34 45-75s-6-73-45-74c-42 0-51 32-51 76 0 43 10 73 51 73" id="Z"/><path d="M100-194c62-1 85 37 85 99 1 63-27 99-86 99S16-35 15-95c0-66 28-99 85-99zM99-20c44 1 53-31 53-75 0-43-8-75-51-75s-53 32-53 75 10 74 51 75" id="aa"/><g id="e"><use transform="matrix(0.05,0,0,0.05,0,0)" xlink:href="#W"/><use transform="matrix(0.05,0,0,0.05,3.95,0)" xlink:href="#K"/><use transform="matrix(0.05,0,0,0.05,13.949999999999998,0)" xlink:href="#X"/><use transform="matrix(0.05,0,0,0.05,23.95,0)" xlink:href="#J"/><use transform="matrix(0.05,0,0,0.05,29.899999999999995,0)" xlink:href="#I"/><use transform="matrix(0.05,0,0,0.05,39.9,0)" xlink:href="#M"/><use transform="matrix(0.05,0,0,0.05,48.9,0)" xlink:href="#M"/><use transform="matrix(0.05,0,0,0.05,57.900000000000006,0)" xlink:href="#F"/><use transform="matrix(0.05,0,0,0.05,63.85,0)" xlink:href="#Y"/><use transform="matrix(0.05,0,0,0.05,72.85,0)" xlink:href="#I"/><use transform="matrix(0.05,0,0,0.05,82.85,0)" xlink:href="#J"/><use transform="matrix(0.05,0,0,0.05,88.8,0)" xlink:href="#L"/><use transform="matrix(0.05,0,0,0.05,93.8,0)" xlink:href="#F"/><use transform="matrix(0.05,0,0,0.05,99.75,0)" xlink:href="#Z"/><use transform="matrix(0.05,0,0,0.05,109.75,0)" xlink:href="#J"/><use transform="matrix(0.05,0,0,0.05,115.7,0)" xlink:href="#aa"/><use transform="matrix(0.05,0,0,0.05,125.7,0)" xlink:href="#T"/><use transform="matrix(0.05,0,0,0.05,135.7,0)" xlink:href="#G"/><use transform="matrix(0.05,0,0,0.05,145.7,0)" xlink:href="#Y"/><use transform="matrix(0.05,0,0,0.05,154.7,0)" xlink:href="#L"/><use transform="matrix(0.05,0,0,0.05,159.7,0)" xlink:href="#W"/><use transform="matrix(0.05,0,0,0.05,163.64999999999998,0)" xlink:href="#aa"/><use transform="matrix(0.05,0,0,0.05,173.64999999999998,0)" xlink:href="#K"/></g><path d="M145-31C134-9 116 4 85 4 32 4 16-35 15-94c0-59 17-99 70-100 32-1 48 14 60 33 0-11-1-24 2-32h30l-1 268h-32zM93-21c41 0 51-33 51-76s-8-73-50-73c-40 0-46 35-46 75s5 74 45 74" id="ab"/><g id="f"><use transform="matrix(0.05,0,0,0.05,0,0)" xlink:href="#Z"/><use transform="matrix(0.05,0,0,0.05,10,0)" xlink:href="#X"/><use transform="matrix(0.05,0,0,0.05,20,0)" xlink:href="#M"/><use transform="matrix(0.05,0,0,0.05,29,0)" xlink:href="#ab"/><use transform="matrix(0.05,0,0,0.05,39,0)" xlink:href="#Q"/><use transform="matrix(0.05,0,0,0.05,42.95,0)" xlink:href="#S"/><use transform="matrix(0.05,0,0,0.05,47.95,0)" xlink:href="#O"/><use transform="matrix(0.05,0,0,0.05,62.900000000000006,0)" xlink:href="#P"/><use transform="matrix(0.05,0,0,0.05,71.9,0)" xlink:href="#Q"/><use transform="matrix(0.05,0,0,0.05,75.85000000000001,0)" xlink:href="#R"/><use transform="matrix(0.05,0,0,0.05,85.85000000000001,0)" xlink:href="#H"/><use transform="matrix(0.05,0,0,0.05,95.85000000000001,0)" xlink:href="#M"/><use transform="matrix(0.05,0,0,0.05,104.85000000000001,0)" xlink:href="#S"/><use transform="matrix(0.05,0,0,0.05,109.85000000000001,0)" xlink:href="#T"/><use transform="matrix(0.05,0,0,0.05,119.85000000000001,0)" xlink:href="#I"/><use transform="matrix(0.05,0,0,0.05,129.85000000000002,0)" xlink:href="#U"/></g><path d="M0 4l72-265h28L28 4H0" id="ac"/><use transform="matrix(0.03703703703703704,0,0,0.03703703703703704,0,0)" xlink:href="#ac" id="g"/><g id="h"><use transform="matrix(0.03703703703703704,0,0,0.03703703703703704,0,0)" xlink:href="#ac"/><use transform="matrix(0.03703703703703704,0,0,0.03703703703703704,3.703703703703704,0)" xlink:href="#R"/><use transform="matrix(0.03703703703703704,0,0,0.03703703703703704,11.111111111111112,0)" xlink:href="#Z"/><use transform="matrix(0.03703703703703704,0,0,0.03703703703703704,18.51851851851852,0)" xlink:href="#W"/><use transform="matrix(0.03703703703703704,0,0,0.03703703703703704,21.444444444444446,0)" xlink:href="#ac"/></g><g id="i"><use transform="matrix(0.03703703703703704,0,0,0.03703703703703704,0,0)" xlink:href="#ac"/><use transform="matrix(0.03703703703703704,0,0,0.03703703703703704,3.703703703703704,0)" xlink:href="#M"/><use transform="matrix(0.03703703703703704,0,0,0.03703703703703704,10.370370370370372,0)" xlink:href="#I"/><use transform="matrix(0.03703703703703704,0,0,0.03703703703703704,17.77777777777778,0)" xlink:href="#J"/><use transform="matrix(0.03703703703703704,0,0,0.03703703703703704,22.185185185185187,0)" xlink:href="#U"/><use transform="matrix(0.03703703703703704,0,0,0.03703703703703704,28.851851851851855,0)" xlink:href="#W"/><use transform="matrix(0.03703703703703704,0,0,0.03703703703703704,31.777777777777782,0)" xlink:href="#Y"/><use transform="matrix(0.03703703703703704,0,0,0.03703703703703704,38.44444444444445,0)" xlink:href="#I"/><use transform="matrix(0.03703703703703704,0,0,0.03703703703703704,45.851851851851855,0)" xlink:href="#ac"/></g><path d="M101-251c82-7 93 87 43 132L82-64C71-53 59-42 53-27h129V0H18c2-99 128-94 128-182 0-28-16-43-45-43s-46 15-49 41l-32-3c6-41 34-60 81-64" id="ad"/><g id="j"><use transform="matrix(0.03703703703703704,0,0,0.03703703703703704,0,0)" xlink:href="#ac"/><use transform="matrix(0.03703703703703704,0,0,0.03703703703703704,3.703703703703704,0)" xlink:href="#U"/><use transform="matrix(0.03703703703703704,0,0,0.03703703703703704,10.370370370370372,0)" xlink:href="#ad"/><use transform="matrix(0.03703703703703704,0,0,0.03703703703703704,17.77777777777778,0)" xlink:href="#ac"/></g><path d="M106-169C34-169 62-67 57 0H25v-261h32l-1 103c12-21 28-36 61-36 89 0 53 116 60 194h-32v-121c2-32-8-49-39-48" id="ae"/><g id="k"><use transform="matrix(0.03703703703703704,0,0,0.03703703703703704,0,0)" xlink:href="#ac"/><use transform="matrix(0.03703703703703704,0,0,0.03703703703703704,3.703703703703704,0)" xlink:href="#Y"/><use transform="matrix(0.03703703703703704,0,0,0.03703703703703704,10.370370370370372,0)" xlink:href="#ae"/><use transform="matrix(0.03703703703703704,0,0,0.03703703703703704,17.77777777777778,0)" xlink:href="#R"/><use transform="matrix(0.03703703703703704,0,0,0.03703703703703704,25.185185185185187,0)" xlink:href="#J"/><use transform="matrix(0.03703703703703704,0,0,0.03703703703703704,29.592592592592595,0)" xlink:href="#L"/><use transform="matrix(0.03703703703703704,0,0,0.03703703703703704,33.2962962962963,0)" xlink:href="#J"/><use transform="matrix(0.03703703703703704,0,0,0.03703703703703704,37.70370370370371,0)" xlink:href="#I"/><use transform="matrix(0.03703703703703704,0,0,0.03703703703703704,45.111111111111114,0)" xlink:href="#Z"/><use transform="matrix(0.03703703703703704,0,0,0.03703703703703704,52.51851851851852,0)" xlink:href="#aa"/><use transform="matrix(0.03703703703703704,0,0,0.03703703703703704,59.925925925925924,0)" xlink:href="#ac"/></g><g id="l"><use transform="matrix(0.03703703703703704,0,0,0.03703703703703704,0,0)" xlink:href="#ac"/><use transform="matrix(0.03703703703703704,0,0,0.03703703703703704,3.703703703703704,0)" xlink:href="#Y"/><use transform="matrix(0.03703703703703704,0,0,0.03703703703703704,10.370370370370372,0)" xlink:href="#ac"/></g><g id="m"><use transform="matrix(0.05,0,0,0.05,0,0)" xlink:href="#Y"/><use transform="matrix(0.05,0,0,0.05,9,0)" xlink:href="#aa"/><use transform="matrix(0.05,0,0,0.05,19,0)" xlink:href="#J"/><use transform="matrix(0.05,0,0,0.05,24.95,0)" xlink:href="#I"/><use transform="matrix(0.05,0,0,0.05,34.95,0)" xlink:href="#S"/><use transform="matrix(0.05,0,0,0.05,39.95,0)" xlink:href="#O"/><use transform="matrix(0.05,0,0,0.05,54.900000000000006,0)" xlink:href="#P"/><use transform="matrix(0.05,0,0,0.05,63.900000000000006,0)" xlink:href="#Q"/><use transform="matrix(0.05,0,0,0.05,67.85000000000001,0)" xlink:href="#R"/><use transform="matrix(0.05,0,0,0.05,77.85000000000001,0)" xlink:href="#H"/><use transform="matrix(0.05,0,0,0.05,87.85000000000001,0)" xlink:href="#M"/><use transform="matrix(0.05,0,0,0.05,96.85000000000001,0)" xlink:href="#S"/><use transform="matrix(0.05,0,0,0.05,101.85000000000001,0)" xlink:href="#T"/><use transform="matrix(0.05,0,0,0.05,111.85000000000001,0)" xlink:href="#I"/><use transform="matrix(0.05,0,0,0.05,121.85000000000001,0)" xlink:href="#U"/></g><g id="n"><use transform="matrix(0.05,0,0,0.05,0,0)" xlink:href="#K"/><use transform="matrix(0.05,0,0,0.05,10,0)" xlink:href="#aa"/><use transform="matrix(0.05,0,0,0.05,20,0)" xlink:href="#L"/><use transform="matrix(0.05,0,0,0.05,25,0)" xlink:href="#R"/><use transform="matrix(0.05,0,0,0.05,35,0)" xlink:href="#J"/><use transform="matrix(0.05,0,0,0.05,40.95,0)" xlink:href="#P"/><use transform="matrix(0.05,0,0,0.05,48.6,0)" xlink:href="#S"/><use transform="matrix(0.05,0,0,0.05,53.6,0)" xlink:href="#O"/><use transform="matrix(0.05,0,0,0.05,68.55,0)" xlink:href="#P"/><use transform="matrix(0.05,0,0,0.05,77.55,0)" xlink:href="#Q"/><use transform="matrix(0.05,0,0,0.05,81.5,0)" xlink:href="#R"/><use transform="matrix(0.05,0,0,0.05,91.5,0)" xlink:href="#H"/><use transform="matrix(0.05,0,0,0.05,101.5,0)" xlink:href="#M"/><use transform="matrix(0.05,0,0,0.05,110.5,0)" xlink:href="#S"/><use transform="matrix(0.05,0,0,0.05,115.5,0)" xlink:href="#T"/><use transform="matrix(0.05,0,0,0.05,125.5,0)" xlink:href="#I"/><use transform="matrix(0.05,0,0,0.05,135.5,0)" xlink:href="#U"/></g><path d="M205 0l-28-72H64L36 0H1l101-248h38L239 0h-34zm-38-99l-47-123c-12 45-31 82-46 123h93" id="af"/><path d="M9 0v-24l116-142H16v-24h144v24L44-24h123V0H9" id="ag"/><g id="o"><use transform="matrix(0.05,0,0,0.05,0,0)" xlink:href="#af"/><use transform="matrix(0.05,0,0,0.05,12,0)" xlink:href="#O"/><use transform="matrix(0.05,0,0,0.05,26.950000000000003,0)" xlink:href="#R"/><use transform="matrix(0.05,0,0,0.05,36.95,0)" xlink:href="#ag"/><use transform="matrix(0.05,0,0,0.05,45.95,0)" xlink:href="#aa"/><use transform="matrix(0.05,0,0,0.05,55.95,0)" xlink:href="#K"/></g><path d="M233-177c-1 41-23 64-60 70L243 0h-38l-65-103H63V0H30v-248c88 3 205-21 203 71zM63-129c60-2 137 13 137-47 0-61-80-42-137-45v92" id="ah"/><path d="M30-248c118-7 216 8 213 122C240-48 200 0 122 0H30v-248zM63-27c89 8 146-16 146-99s-60-101-146-95v194" id="ai"/><g id="p"><use transform="matrix(0.05,0,0,0.05,0,0)" xlink:href="#ah"/><use transform="matrix(0.05,0,0,0.05,12.950000000000001,0)" xlink:href="#ai"/><use transform="matrix(0.05,0,0,0.05,25.900000000000002,0)" xlink:href="#E"/></g><g id="q"><use transform="matrix(0.05,0,0,0.05,0,0)" xlink:href="#Y"/><use transform="matrix(0.05,0,0,0.05,9,0)" xlink:href="#aa"/><use transform="matrix(0.05,0,0,0.05,19,0)" xlink:href="#J"/><use transform="matrix(0.05,0,0,0.05,24.95,0)" xlink:href="#I"/><use transform="matrix(0.05,0,0,0.05,34.95,0)" xlink:href="#ad"/><use transform="matrix(0.05,0,0,0.05,44.95,0)" xlink:href="#S"/><use transform="matrix(0.05,0,0,0.05,49.95,0)" xlink:href="#O"/><use transform="matrix(0.05,0,0,0.05,64.9,0)" xlink:href="#P"/><use transform="matrix(0.05,0,0,0.05,73.9,0)" xlink:href="#Q"/><use transform="matrix(0.05,0,0,0.05,77.85000000000001,0)" xlink:href="#R"/><use transform="matrix(0.05,0,0,0.05,87.85000000000001,0)" xlink:href="#H"/><use transform="matrix(0.05,0,0,0.05,97.85000000000001,0)" xlink:href="#M"/><use transform="matrix(0.05,0,0,0.05,106.85000000000001,0)" xlink:href="#S"/><use transform="matrix(0.05,0,0,0.05,111.85000000000001,0)" xlink:href="#T"/><use transform="matrix(0.05,0,0,0.05,121.85000000000001,0)" xlink:href="#I"/><use transform="matrix(0.05,0,0,0.05,131.85000000000002,0)" xlink:href="#U"/></g><g id="r"><use transform="matrix(0.05,0,0,0.05,0,0)" xlink:href="#K"/><use transform="matrix(0.05,0,0,0.05,10,0)" xlink:href="#aa"/><use transform="matrix(0.05,0,0,0.05,20,0)" xlink:href="#L"/><use transform="matrix(0.05,0,0,0.05,25,0)" xlink:href="#R"/><use transform="matrix(0.05,0,0,0.05,35,0)" xlink:href="#J"/><use transform="matrix(0.05,0,0,0.05,40.95,0)" xlink:href="#P"/><use transform="matrix(0.05,0,0,0.05,49.95,0)" xlink:href="#ad"/><use transform="matrix(0.05,0,0,0.05,59.95,0)" xlink:href="#S"/><use transform="matrix(0.05,0,0,0.05,64.95,0)" xlink:href="#O"/><use transform="matrix(0.05,0,0,0.05,79.9,0)" xlink:href="#P"/><use transform="matrix(0.05,0,0,0.05,88.9,0)" xlink:href="#Q"/><use transform="matrix(0.05,0,0,0.05,92.85000000000001,0)" xlink:href="#R"/><use transform="matrix(0.05,0,0,0.05,102.85000000000001,0)" xlink:href="#H"/><use transform="matrix(0.05,0,0,0.05,112.85000000000001,0)" xlink:href="#M"/><use transform="matrix(0.05,0,0,0.05,121.85000000000001,0)" xlink:href="#S"/><use transform="matrix(0.05,0,0,0.05,126.85000000000001,0)" xlink:href="#T"/><use transform="matrix(0.05,0,0,0.05,136.85000000000002,0)" xlink:href="#I"/><use transform="matrix(0.05,0,0,0.05,146.85000000000002,0)" xlink:href="#U"/></g><path d="M30 0v-248h33v221h125V0H30" id="aj"/><path d="M160-131c35 5 61 23 61 61C221 17 115-2 30 0v-248c76 3 177-17 177 60 0 33-19 50-47 57zm-97-11c50-1 110 9 110-42 0-47-63-36-110-37v79zm0 115c55-2 124 14 124-45 0-56-70-42-124-44v89" id="ak"/><g id="s"><use transform="matrix(0.05,0,0,0.05,0,0)" xlink:href="#C"/><use transform="matrix(0.05,0,0,0.05,12,0)" xlink:href="#aj"/><use transform="matrix(0.05,0,0,0.05,22,0)" xlink:href="#ak"/></g><g id="t"><use transform="matrix(0.05,0,0,0.05,0,0)" xlink:href="#C"/><use transform="matrix(0.05,0,0,0.05,12,0)" xlink:href="#ak"/><use transform="matrix(0.05,0,0,0.05,24,0)" xlink:href="#E"/></g><path d="M141 0L90-78 38 0H4l68-98-65-92h35l48 74 47-74h35l-64 92 68 98h-35" id="al"/><g id="u"><use transform="matrix(0.05,0,0,0.05,0,0)" xlink:href="#K"/><use transform="matrix(0.05,0,0,0.05,10,0)" xlink:href="#X"/><use transform="matrix(0.05,0,0,0.05,20,0)" xlink:href="#W"/><use transform="matrix(0.05,0,0,0.05,23.95,0)" xlink:href="#K"/><use transform="matrix(0.05,0,0,0.05,33.95,0)" xlink:href="#al"/><use transform="matrix(0.05,0,0,0.05,42.95,0)" xlink:href="#F"/><use transform="matrix(0.05,0,0,0.05,48.900000000000006,0)" xlink:href="#W"/><use transform="matrix(0.05,0,0,0.05,52.85,0)" xlink:href="#K"/><use transform="matrix(0.05,0,0,0.05,62.85,0)" xlink:href="#X"/><use transform="matrix(0.05,0,0,0.05,72.85000000000001,0)" xlink:href="#J"/><use transform="matrix(0.05,0,0,0.05,78.80000000000001,0)" xlink:href="#I"/><use transform="matrix(0.05,0,0,0.05,88.80000000000001,0)" xlink:href="#M"/><use transform="matrix(0.05,0,0,0.05,97.80000000000001,0)" xlink:href="#M"/></g><g id="v"><use transform="matrix(0.05,0,0,0.05,0,0)" xlink:href="#Y"/><use transform="matrix(0.05,0,0,0.05,9,0)" xlink:href="#I"/><use transform="matrix(0.05,0,0,0.05,19,0)" xlink:href="#J"/><use transform="matrix(0.05,0,0,0.05,24.95,0)" xlink:href="#L"/><use transform="matrix(0.05,0,0,0.05,29.950000000000003,0)" xlink:href="#F"/><use transform="matrix(0.05,0,0,0.05,35.9,0)" xlink:href="#O"/><use transform="matrix(0.05,0,0,0.05,50.85,0)" xlink:href="#R"/><use transform="matrix(0.05,0,0,0.05,60.85,0)" xlink:href="#K"/><use transform="matrix(0.05,0,0,0.05,70.85,0)" xlink:href="#R"/><use transform="matrix(0.05,0,0,0.05,80.85,0)" xlink:href="#X"/><use transform="matrix(0.05,0,0,0.05,90.85,0)" xlink:href="#I"/><use transform="matrix(0.05,0,0,0.05,100.85,0)" xlink:href="#J"/></g><g id="w"><use transform="matrix(0.05,0,0,0.05,0,0)" xlink:href="#ah"/><use transform="matrix(0.05,0,0,0.05,12.950000000000001,0)" xlink:href="#aa"/><use transform="matrix(0.05,0,0,0.05,22.950000000000003,0)" xlink:href="#G"/><use transform="matrix(0.05,0,0,0.05,32.95,0)" xlink:href="#L"/><use transform="matrix(0.05,0,0,0.05,37.95,0)" xlink:href="#I"/></g><path d="M54-142c48-35 137-8 131 61C196 18 31 33 14-55l32-4c7 23 22 37 52 37 35-1 51-22 54-58 4-55-73-65-99-34H22l8-134h141v27H59" id="am"/><path d="M126-127c33 6 58 20 58 59 0 88-139 92-164 29-3-8-5-16-6-25l32-3c6 27 21 44 54 44 32 0 52-15 52-46 0-38-36-46-79-43v-28c39 1 72-4 72-42 0-27-17-43-46-43-28 0-47 15-49 41l-32-3c6-42 35-63 81-64 48-1 79 21 79 65 0 36-21 52-52 59" id="an"/><g id="x"><use transform="matrix(0.05,0,0,0.05,0,0)" xlink:href="#am"/><use transform="matrix(0.05,0,0,0.05,10,0)" xlink:href="#an"/></g><path d="M47-170H22l-4-78h33" id="ao"/><g id="y"><use transform="matrix(0.05,0,0,0.05,0,0)" xlink:href="#aj"/><use transform="matrix(0.05,0,0,0.05,10,0)" xlink:href="#I"/><use transform="matrix(0.05,0,0,0.05,20,0)" xlink:href="#L"/><use transform="matrix(0.05,0,0,0.05,25,0)" xlink:href="#ao"/><use transform="matrix(0.05,0,0,0.05,28.399999999999995,0)" xlink:href="#M"/></g><g id="z"><use transform="matrix(0.05,0,0,0.05,0,0)" xlink:href="#C"/><use transform="matrix(0.05,0,0,0.05,12,0)" xlink:href="#K"/><use transform="matrix(0.05,0,0,0.05,22,0)" xlink:href="#Y"/><use transform="matrix(0.05,0,0,0.05,31,0)" xlink:href="#J"/><use transform="matrix(0.05,0,0,0.05,36.95,0)" xlink:href="#P"/><use transform="matrix(0.05,0,0,0.05,45.95,0)" xlink:href="#Z"/><use transform="matrix(0.05,0,0,0.05,55.95,0)" xlink:href="#L"/></g><path d="M143 0L79-87 56-68V0H24v-261h32v163l83-92h37l-77 82L181 0h-38" id="ap"/><g id="A"><use transform="matrix(0.05,0,0,0.05,0,0)" xlink:href="#ap"/><use transform="matrix(0.05,0,0,0.05,9,0)" xlink:href="#G"/><use transform="matrix(0.05,0,0,0.05,19,0)" xlink:href="#H"/><use transform="matrix(0.05,0,0,0.05,29,0)" xlink:href="#I"/><use transform="matrix(0.05,0,0,0.05,39,0)" xlink:href="#T"/></g><path d="M206 0h-36l-40-164L89 0H53L-1-190h32L70-26l43-164h34l41 164 42-164h31" id="aq"/><path d="M101-251c68 0 85 55 85 127S166 4 100 4C33 4 14-52 14-124c0-73 17-127 87-127zm-1 229c47 0 54-49 54-102s-4-102-53-102c-51 0-55 48-55 102 0 53 5 102 54 102" id="ar"/><path d="M27 0v-27h64v-190l-56 39v-29l58-41h29v221h61V0H27" id="as"/><g id="B"><use transform="matrix(0.05,0,0,0.05,0,0)" xlink:href="#aq"/><use transform="matrix(0.05,0,0,0.05,12.950000000000001,0)" xlink:href="#W"/><use transform="matrix(0.05,0,0,0.05,16.900000000000002,0)" xlink:href="#K"/><use transform="matrix(0.05,0,0,0.05,26.900000000000002,0)" xlink:href="#R"/><use transform="matrix(0.05,0,0,0.05,36.900000000000006,0)" xlink:href="#T"/><use transform="matrix(0.05,0,0,0.05,46.900000000000006,0)" xlink:href="#ar"/><use transform="matrix(0.05,0,0,0.05,56.900000000000006,0)" xlink:href="#as"/><use transform="matrix(0.05,0,0,0.05,66.9,0)" xlink:href="#S"/><use transform="matrix(0.05,0,0,0.05,71.9,0)" xlink:href="#O"/><use transform="matrix(0.05,0,0,0.05,86.85000000000001,0)" xlink:href="#P"/><use transform="matrix(0.05,0,0,0.05,95.85000000000001,0)" xlink:href="#Q"/><use transform="matrix(0.05,0,0,0.05,99.80000000000001,0)" xlink:href="#R"/><use transform="matrix(0.05,0,0,0.05,109.80000000000001,0)" xlink:href="#H"/><use transform="matrix(0.05,0,0,0.05,119.80000000000001,0)" xlink:href="#M"/><use transform="matrix(0.05,0,0,0.05,128.8,0)" xlink:href="#S"/><use transform="matrix(0.05,0,0,0.05,133.8,0)" xlink:href="#T"/><use transform="matrix(0.05,0,0,0.05,143.8,0)" xlink:href="#I"/><use transform="matrix(0.05,0,0,0.05,153.8,0)" xlink:href="#U"/></g></defs></g></svg>